<?xml version="1.0" encoding="UTF-8" standalone="no"?>
<svg
   xmlns:dc="http://purl.org/dc/elements/1.1/"
   xmlns:cc="http://creativecommons.org/ns#"
   xmlns:rdf="http://www.w3.org/1999/02/22-rdf-syntax-ns#"
   xmlns:svg="http://www.w3.org/2000/svg"
   xmlns="http://www.w3.org/2000/svg"
   id="svg42"
   preserveAspectRatio="xMidYMid meet"
   viewBox="0 0 200.000000 187.000000"
   height="187.000000pt"
   width="200.000000pt"
   version="1.0">
  <metadata
     id="metadata48">
    <rdf:RDF>
      <cc:Work
         rdf:about="">
        <dc:format>image/svg+xml</dc:format>
        <dc:type
           rdf:resource="http://purl.org/dc/dcmitype/StillImage" />
        <dc:title></dc:title>
      </cc:Work>
    </rdf:RDF>
  </metadata>
  <defs
     id="defs46" />
  <g
     id="g40"
     stroke="none"
     fill="#000000"
     transform="translate(0.000000,187.000000) scale(0.100000,-0.100000)">
    <path
       style="fill:#ff0000"
       id="path38"
       d="M 784,1696 C 632,1661 484,1575 373,1457 182,1252 117,965 201,693 c 18,-59 43,-119 55,-132 2,-2 65,42 139,98 146,109 167,121 222,121 59,0 103,-34 186,-145 86,-113 105,-130 166,-144 125,-28 241,74 229,201 -6,55 -28,92 -77,125 -36,24 -78,38 -235,79 -129,32 -177,64 -220,143 -37,69 -45,155 -21,236 23,79 114,173 194,198 104,33 215,15 290,-49 23,-20 76,-82 118,-138 42,-55 85,-109 97,-118 26,-22 63,-23 110,-3 31,13 35,19 30,39 -3,13 -1,26 4,30 5,3 45,8 89,12 l 81,7 16,-31 c 23,-45 21,-53 -26,-98 -87,-81 -88,-81 -104,-60 -14,19 -15,19 -83,-3 -114,-37 -160,-15 -275,137 -121,160 -151,182 -249,182 -158,0 -254,-167 -174,-302 32,-54 77,-77 229,-113 121,-28 159,-43 214,-83 125,-91 130,-315 8,-421 -67,-60 -111,-76 -204,-76 C 891,385 840,414 747,536 649,664 634,680 612,680 601,680 530,634 454,578 324,481 316,477 304,495 c -21,32 -46,61 -38,45 20,-42 98,-141 147,-187 105,-99 247,-173 392,-204 92,-19 266,-14 359,10 157,41 308,136 405,253 62,74 142,235 167,333 26,101 24,284 -5,390 -20,73 -20,81 -5,92 12,9 24,8 54,-2 36,-13 50,-11 50,6 0,4 -13,12 -30,18 -33,11 -35,17 -21,54 8,19 6,27 -5,31 -13,5 -34,-28 -34,-54 0,-8 -32,-30 -43,-30 -3,0 -21,28 -40,63 -95,167 -259,300 -452,363 -67,23 -102,36.9047 -220,39.9047 -95,2 -160,-10.9047 -201,-19.9047 z" />
  </g>
</svg>
